# xmcd
#
# Track frame offsets:
#	150
#	36345
#	58881
#	91552
#	107775
#	130337
#	157356
#	178972
#	197256
#	210328
#	224179
#	251043
#	272465
#	298814
#	320015
#
# Disc length: 4711 seconds
#
# Revision: 0
# Processed by: cddbd v1.5.2PL0 Copyright (c) Steve Scherf et al.
# Submitted via: audiograbber 1.83.01
#
DISCID=f012650f
DTITLE=Chuck Farley - At The Boom Boom
DYEAR=2010
DGENRE=Blues
TTITLE0=Down In Hollywood
TTITLE1=Take Me To The River
TTITLE2=Revelation
TTITLE3=Sing 'em The Way I Feel
TTITLE4=Brickyard Blues
TTITLE5=Quarter Of A Man
TTITLE6=Busted Loose
TTITLE7=Right Next Time
TTITLE8=Crinkley Grin
TTITLE9=Speedo
TTITLE10=Right Where It Hurts
TTITLE11=Golden Girl
TTITLE12=New Delhi Freight Train
TTITLE13=Old Folks Boogie
TTITLE14=Same Damn Thing
EXTD=
EXTT0=
EXTT1=
EXTT2=
EXTT3=
EXTT4=
EXTT5=
EXTT6=
EXTT7=
EXTT8=
EXTT9=
EXTT10=
EXTT11=
EXTT12=
EXTT13=
EXTT14=
PLAYORDER=
